<?xml version="1.0" encoding="UTF-8"?>
<!-- Created by Vectric (http://www.vectric.com/) -->
<svg width="600.00000000mm" height="300.00000000mm" viewBox="0.00000000 0.00000000 600.00000000 300.00000000" id="svg2" version="1.1" xmlns="http://www.w3.org/2000/svg" xmlns:xlink="http://www.w3.org/1999/xlink" xmlns:inkscape="http://www.inkscape.org/namespaces/inkscape">
    <g inkscape:groupmode="layer" id="85667243-1302-4a85-b3ac-c7bf39b332ec" inkscape:label="Toolpath Previews" style="stroke:#000000;"/>
    <g inkscape:groupmode="layer" id="9b60fb9f-990b-46f1-8a37-d42ac4f74733" inkscape:label="Layer 1" style="stroke:#000000;">
        <path style="fill:none;stroke-width:0.280000;stroke-linecap:round;stroke-linejoin:round;stroke-opacity:1;stroke:#000000;" d="M 253.160339,189.972071 L 248.036355,131.404662 L 251.450117,66.491714 L 251.174597,59.189892 C 251.239322,56.230893 250.665180,53.868299 249.380826,52.287709 C 247.110076,49.493213 242.947057,49.546497 241.931567,50.423873 L 194.811682,59.906710 A 20.000000,20.000000 0 0,1 184.026070,59.093540 L 147.187784,46.023841 C 146.276499,46.070693 146.134201,46.065182 145.990615,46.065182 C 143.208044,46.065182 140.908921,48.135072 140.552550,50.819582 L 140.739423,63.150652 L 148.038462,145.200258 L 140.500000,207.046412 L 140.500000,211.349557 A 10.000000,10.000000 0 0,0 154.726183,220.412634 L 198.226390,200.128155 A 20.000000,20.000000 0 0,1 210.151719,198.558155 L 248.234143,205.273584 C 248.241729,205.274088 248.249324,205.274105 248.256923,205.274105 C 250.734152,205.274105 252.800212,203.469840 253.186280,201.088161 L 253.181933,197.516246 L 253.160339,189.972071 "/>
    </g>
</svg>
